<svg xmlns="http://www.w3.org/2000/svg" xmlns:xlink="http://www.w3.org/1999/xlink" width="1600" zoomAndPan="magnify" viewBox="0 0 1200 299.999988" height="400" preserveAspectRatio="xMidYMid meet" version="1.0"><defs><g/><clipPath id="799bc3282f"><path d="M 85.714844 0 L 257.394531 0 L 257.394531 150 L 85.714844 150 Z M 85.714844 0 " clip-rule="nonzero"/></clipPath><clipPath id="28d6f55515"><path d="M 171.429688 0 L 257.144531 150 L 85.714844 150 Z M 171.429688 0 " clip-rule="nonzero"/></clipPath><clipPath id="5e341fd01c"><path d="M 0.714844 0 L 172.28125 0 L 172.28125 150 L 0.714844 150 Z M 0.714844 0 " clip-rule="nonzero"/></clipPath><clipPath id="ce2c744390"><path d="M 86.429688 0 L 172.144531 150 L 0.714844 150 Z M 86.429688 0 " clip-rule="nonzero"/></clipPath><clipPath id="50caa3f56b"><rect x="0" width="173" y="0" height="150"/></clipPath><clipPath id="f679bb589d"><path d="M 0 150 L 171.679688 150 L 171.679688 300 L 0 300 Z M 0 150 " clip-rule="nonzero"/></clipPath><clipPath id="90bf7929d6"><path d="M 85.714844 150 L 171.429688 300 L 0 300 Z M 85.714844 150 " clip-rule="nonzero"/></clipPath><clipPath id="4af2cbff6c"><path d="M 0 0 L 171.601562 0 L 171.601562 150 L 0 150 Z M 0 0 " clip-rule="nonzero"/></clipPath><clipPath id="aea8f95c61"><path d="M 85.714844 0 L 171.429688 150 L 0 150 Z M 85.714844 0 " clip-rule="nonzero"/></clipPath><clipPath id="ece33fd9f6"><rect x="0" width="172" y="0" height="150"/></clipPath><clipPath id="ae04167555"><path d="M 171.429688 149.75 L 342.808594 149.75 L 342.808594 300 L 171.429688 300 Z M 171.429688 149.75 " clip-rule="nonzero"/></clipPath><clipPath id="fefcfa099e"><path d="M 256.859375 149.75 L 342.285156 300 L 171.429688 300 Z M 256.859375 149.75 " clip-rule="nonzero"/></clipPath><clipPath id="ee159cb624"><path d="M 0.429688 0.75 L 171.480469 0.75 L 171.480469 151 L 0.429688 151 Z M 0.429688 0.75 " clip-rule="nonzero"/></clipPath><clipPath id="dd0dc71792"><path d="M 85.859375 0.75 L 171.285156 151 L 0.429688 151 Z M 85.859375 0.75 " clip-rule="nonzero"/></clipPath><clipPath id="e3c87af07d"><rect x="0" width="172" y="0" height="151"/></clipPath></defs><g clip-path="url(#799bc3282f)"><g clip-path="url(#28d6f55515)"><g transform="matrix(1, 0, 0, 1, 85, 0)"><g clip-path="url(#50caa3f56b)"><g clip-path="url(#5e341fd01c)"><g clip-path="url(#ce2c744390)"><path fill="#ffffff" d="M 0.714844 0 L 172.394531 0 L 172.394531 150 L 0.714844 150 Z M 0.714844 0 " fill-opacity="1" fill-rule="nonzero"/></g></g></g></g></g></g><g clip-path="url(#f679bb589d)"><g clip-path="url(#90bf7929d6)"><g transform="matrix(1, 0, 0, 1, 0, 150)"><g clip-path="url(#ece33fd9f6)"><g clip-path="url(#4af2cbff6c)"><g clip-path="url(#aea8f95c61)"><path fill="#ffffff" d="M 0 0 L 171.679688 0 L 171.679688 150 L 0 150 Z M 0 0 " fill-opacity="1" fill-rule="nonzero"/></g></g></g></g></g></g><g clip-path="url(#ae04167555)"><g clip-path="url(#fefcfa099e)"><g transform="matrix(1, 0, 0, 1, 171, 149)"><g clip-path="url(#e3c87af07d)"><g clip-path="url(#ee159cb624)"><g clip-path="url(#dd0dc71792)"><path fill="#ffffff" d="M 0.429688 0.75 L 171.222656 0.75 L 171.222656 151 L 0.429688 151 Z M 0.429688 0.75 " fill-opacity="1" fill-rule="nonzero"/></g></g></g></g></g></g><g fill="#ffffff" fill-opacity="1"><g transform="translate(384.539378, 204.500234)"><g><path d="M 26 0 L 5.203125 0 L 5.203125 -93.59375 C 5.203125 -96.457031 6.21875 -98.90625 8.25 -100.9375 C 10.289062 -102.976562 12.738281 -104 15.59375 -104 C 18.457031 -104 20.929688 -102.957031 23.015625 -100.875 L 88.40625 -35.484375 L 88.40625 -104 L 109.203125 -104 L 109.203125 -10.40625 C 109.203125 -7.539062 108.179688 -5.085938 106.140625 -3.046875 C 104.109375 -1.015625 101.660156 0 98.796875 0 C 95.941406 0 93.472656 -1.039062 91.390625 -3.125 L 26 -68.515625 Z M 26 0 "/></g></g></g><g fill="#ffffff" fill-opacity="1"><g transform="translate(498.935952, 204.500234)"><g><path d="M 88.40625 0 L 26 0 C 22.1875 0 18.695312 -0.929688 15.53125 -2.796875 C 12.375 -4.660156 9.863281 -7.171875 8 -10.328125 C 6.132812 -13.492188 5.203125 -16.984375 5.203125 -20.796875 L 5.203125 -83.203125 C 5.203125 -87.015625 6.132812 -90.5 8 -93.65625 C 9.863281 -96.820312 12.375 -99.335938 15.53125 -101.203125 C 18.695312 -103.066406 22.1875 -104 26 -104 L 88.40625 -104 C 92.21875 -104 95.703125 -103.066406 98.859375 -101.203125 C 102.023438 -99.335938 104.539062 -96.820312 106.40625 -93.65625 C 108.269531 -90.5 109.203125 -87.015625 109.203125 -83.203125 L 109.203125 -20.796875 C 109.203125 -17.066406 108.269531 -13.617188 106.40625 -10.453125 C 104.539062 -7.296875 102.046875 -4.765625 98.921875 -2.859375 C 95.804688 -0.953125 92.300781 0 88.40625 0 Z M 26 -83.203125 L 26 -20.796875 L 88.40625 -20.796875 L 88.40625 -83.203125 Z M 26 -83.203125 "/></g></g></g><g fill="#ffffff" fill-opacity="1"><g transform="translate(613.332527, 204.500234)"><g><path d="M 26 -104 L 88.40625 -104 C 92.21875 -104 95.703125 -103.066406 98.859375 -101.203125 C 102.023438 -99.335938 104.539062 -96.820312 106.40625 -93.65625 C 108.269531 -90.5 109.203125 -87.015625 109.203125 -83.203125 L 109.203125 0 L 88.40625 0 L 88.40625 -83.203125 L 67.59375 -83.203125 L 67.59375 0 L 46.796875 0 L 46.796875 -83.203125 L 26 -83.203125 L 26 0 L 5.203125 0 L 5.203125 -83.203125 C 5.203125 -87.015625 6.132812 -90.5 8 -93.65625 C 9.863281 -96.820312 12.375 -99.335938 15.53125 -101.203125 C 18.695312 -103.066406 22.1875 -104 26 -104 Z M 26 -104 "/></g></g></g><g fill="#ffffff" fill-opacity="1"><g transform="translate(727.729101, 204.500234)"><g><path d="M 109.203125 0 L 5.203125 0 L 5.203125 -20.796875 L 46.796875 -20.796875 L 46.796875 -83.203125 L 5.203125 -83.203125 L 5.203125 -104 L 109.203125 -104 L 109.203125 -83.203125 L 67.59375 -83.203125 L 67.59375 -20.796875 L 109.203125 -20.796875 Z M 109.203125 0 "/></g></g></g><g fill="#ffffff" fill-opacity="1"><g transform="translate(842.125675, 204.500234)"><g><path d="M 26 0 L 5.203125 0 L 5.203125 -93.59375 C 5.203125 -96.457031 6.21875 -98.90625 8.25 -100.9375 C 10.289062 -102.976562 12.738281 -104 15.59375 -104 C 18.457031 -104 20.929688 -102.957031 23.015625 -100.875 L 88.40625 -35.484375 L 88.40625 -104 L 109.203125 -104 L 109.203125 -10.40625 C 109.203125 -7.539062 108.179688 -5.085938 106.140625 -3.046875 C 104.109375 -1.015625 101.660156 0 98.796875 0 C 95.941406 0 93.472656 -1.039062 91.390625 -3.125 L 26 -68.515625 Z M 26 0 "/></g></g></g><g fill="#ffffff" fill-opacity="1"><g transform="translate(956.522272, 204.500234)"><g><path d="M 26 -104 L 88.40625 -104 C 92.21875 -104 95.703125 -103.066406 98.859375 -101.203125 C 102.023438 -99.335938 104.539062 -96.820312 106.40625 -93.65625 C 108.269531 -90.5 109.203125 -87.015625 109.203125 -83.203125 L 109.203125 0 L 88.40625 0 L 88.40625 -41.59375 L 26 -41.59375 L 26 0 L 5.203125 0 L 5.203125 -83.203125 C 5.203125 -87.015625 6.132812 -90.5 8 -93.65625 C 9.863281 -96.820312 12.375 -99.335938 15.53125 -101.203125 C 18.695312 -103.066406 22.1875 -104 26 -104 Z M 26 -83.203125 L 26 -62.40625 L 88.40625 -62.40625 L 88.40625 -83.203125 Z M 26 -83.203125 "/></g></g></g><g fill="#ffffff" fill-opacity="1"><g transform="translate(1070.918824, 204.500234)"><g><path d="M 109.203125 0 L 26 0 C 22.1875 0 18.695312 -0.929688 15.53125 -2.796875 C 12.375 -4.660156 9.863281 -7.171875 8 -10.328125 C 6.132812 -13.492188 5.203125 -16.984375 5.203125 -20.796875 L 5.203125 -104 L 26 -104 L 26 -20.796875 L 109.203125 -20.796875 Z M 109.203125 0 "/></g></g></g></svg>