<svg xmlns="http://www.w3.org/2000/svg" xmlns:xlink="http://www.w3.org/1999/xlink" width="800" zoomAndPan="magnify" viewBox="0 0 600 599.999999" height="800" preserveAspectRatio="xMidYMid meet" version="1.0"><defs><clipPath id="fbb90ac88e"><path d="M 150.25 37.0625 L 451 37.0625 L 451 300 L 150.25 300 Z M 150.25 37.0625 " clip-rule="nonzero"/></clipPath><clipPath id="b5a2a0188e"><path d="M 300.5 37.0625 L 450.75 300 L 150.25 300 Z M 300.5 37.0625 " clip-rule="nonzero"/></clipPath><clipPath id="21193ec233"><path d="M 0.25 0.0625 L 300.960938 0.0625 L 300.960938 263 L 0.25 263 Z M 0.25 0.0625 " clip-rule="nonzero"/></clipPath><clipPath id="71eee4943b"><path d="M 150.5 0.0625 L 300.75 263 L 0.25 263 Z M 150.5 0.0625 " clip-rule="nonzero"/></clipPath><clipPath id="5a36c6da46"><rect x="0" width="301" y="0" height="263"/></clipPath><clipPath id="34308e1b05"><path d="M 0 300 L 300.941406 300 L 300.941406 562.9375 L 0 562.9375 Z M 0 300 " clip-rule="nonzero"/></clipPath><clipPath id="a2013a755f"><path d="M 150.25 300 L 300.5 562.9375 L 0 562.9375 Z M 150.25 300 " clip-rule="nonzero"/></clipPath><clipPath id="6c2b6a1d82"><path d="M 0 0 L 300.71875 0 L 300.71875 262.9375 L 0 262.9375 Z M 0 0 " clip-rule="nonzero"/></clipPath><clipPath id="7dfbed59ff"><path d="M 150.25 0 L 300.5 262.9375 L 0 262.9375 Z M 150.25 0 " clip-rule="nonzero"/></clipPath><clipPath id="f52b17d672"><rect x="0" width="301" y="0" height="263"/></clipPath><clipPath id="8b30a0d5f6"><path d="M 300.5 299.558594 L 600 299.558594 L 600 562.9375 L 300.5 562.9375 Z M 300.5 299.558594 " clip-rule="nonzero"/></clipPath><clipPath id="fe02a4563b"><path d="M 450.25 299.558594 L 600 562.9375 L 300.5 562.9375 Z M 450.25 299.558594 " clip-rule="nonzero"/></clipPath><clipPath id="afa0638ad8"><path d="M 0.5 0.558594 L 300 0.558594 L 300 263.9375 L 0.5 263.9375 Z M 0.5 0.558594 " clip-rule="nonzero"/></clipPath><clipPath id="3c07443833"><path d="M 150.25 0.558594 L 300 263.9375 L 0.5 263.9375 Z M 150.25 0.558594 " clip-rule="nonzero"/></clipPath><clipPath id="a61b6c05ec"><rect x="0" width="300" y="0" height="264"/></clipPath></defs><g clip-path="url(#fbb90ac88e)"><g clip-path="url(#b5a2a0188e)"><g transform="matrix(1, 0, 0, 1, 150, 37)"><g clip-path="url(#5a36c6da46)"><g clip-path="url(#21193ec233)"><g clip-path="url(#71eee4943b)"><path fill="#ffffff" d="M 0.25 0.0625 L 301.191406 0.0625 L 301.191406 263 L 0.25 263 Z M 0.25 0.0625 " fill-opacity="1" fill-rule="nonzero"/></g></g></g></g></g></g><g clip-path="url(#34308e1b05)"><g clip-path="url(#a2013a755f)"><g transform="matrix(1, 0, 0, 1, 0, 300)"><g clip-path="url(#f52b17d672)"><g clip-path="url(#6c2b6a1d82)"><g clip-path="url(#7dfbed59ff)"><path fill="#ffffff" d="M 0 0 L 300.941406 0 L 300.941406 262.9375 L 0 262.9375 Z M 0 0 " fill-opacity="1" fill-rule="nonzero"/></g></g></g></g></g></g><g clip-path="url(#8b30a0d5f6)"><g clip-path="url(#fe02a4563b)"><g transform="matrix(1, 0, 0, 1, 300, 299)"><g clip-path="url(#a61b6c05ec)"><g clip-path="url(#afa0638ad8)"><g clip-path="url(#3c07443833)"><path fill="#ffffff" d="M 0.5 0.558594 L 299.886719 0.558594 L 299.886719 263.9375 L 0.5 263.9375 Z M 0.5 0.558594 " fill-opacity="1" fill-rule="nonzero"/></g></g></g></g></g></g></svg>